# xmcd
#
# Track frame offsets: 
#        150
#        11087
#        24401
#        37046
#        54816
#        65503
#        83042
#        100131
#
# Disc length: 1706 seconds
#
# Revision: 0
# Processed by: cddbd v1.5.2PL0 Copyright (c) Steve Scherf et al.
# Submitted via: ExactAudioCopy v0.99pb4
#
DISCID=5906a808
DTITLE=Sleepwellers - Mother Or A Dodo?
DYEAR=2009
DGENRE=Blues
TTITLE0=Mother Or A Daughter?
TTITLE1=Night Vision
TTITLE2=I Will Follow
TTITLE3=About The Blues
TTITLE4=B77
TTITLE5=Emptier Than Emptiness
TTITLE6=No Panic In Paradise
TTITLE7=My Home Town
EXTD=
EXTT0=
EXTT1=
EXTT2=
EXTT3=
EXTT4=
EXTT5=
EXTT6=
EXTT7=
PLAYORDER=
